# xmcd CD database file
#
# Track frame offsets:
#	150
#	17060
#	44735
#	59933
#	86240
#	117688
#	152899
#	183524
#	206619
#	231604
#	251639
#	266120
#	287205
#	307278
#	320558
#	339169
#
# Disc length: 4745 seconds
#
# Revision: 2
# Processed by: cddbd v1.5.2PL0 Copyright (c) Steve Scherf et al.
# Submitted via: CDex 1.51
#
DISCID=0d128710
DTITLE=Vanessa Mae - Hit Collection 2001
DYEAR=2001
DGENRE=Pop
TTITLE0=Storm
TTITLE1=Laughing Buddha
TTITLE2=Classical Gas
TTITLE3=Yantra
TTITLE4=I Feel Love
TTITLE5=Toccata and Fugue in D-minor, 565
TTITLE6=Destiny
TTITLE7=Theme from ''Karavans''
TTITLE8=White Bird
TTITLE9=Pasha
TTITLE10=Spring Allegro
TTITLE11=Night Flight
TTITLE12=Bach Street Prelude
TTITLE13=Picante
TTITLE14=Reminiscing
TTITLE15=Devil's Trill
EXTD=YEAR: 2001
EXTT0=
EXTT1=
EXTT2=
EXTT3=
EXTT4=
EXTT5=
EXTT6=
EXTT7=
EXTT8=
EXTT9=
EXTT10=
EXTT11=
EXTT12=
EXTT13=
EXTT14=
EXTT15=
PLAYORDER=
